<?xml version="1.0" encoding="iso-8859-1"?>
<!-- Generator: Adobe Illustrator 16.0.0, SVG Export Plug-In . SVG Version: 6.00 Build 0)  -->
<!DOCTYPE svg PUBLIC "-//W3C//DTD SVG 1.1//EN" "http://www.w3.org/Graphics/SVG/1.1/DTD/svg11.dtd">
<svg xmlns="http://www.w3.org/2000/svg" xmlns:xlink="http://www.w3.org/1999/xlink" version="1.1" id="Capa_1" x="0px" y="0px" width="512px" height="512px" viewBox="0 0 323.218 323.218" style="enable-background:new 0 0 323.218 323.218;" xml:space="preserve">
<g>
	<path d="M66.172,28.604c0-0.362-0.135-0.677-0.205-1.018L145.813,0c1.897,31.277,15.053,76.542,34.703,96.994h-59.068   c-2.609,0-5.189,0.168-7.74,0.425c-0.646-0.273-1.349-0.425-2.092-0.425C86.98,96.994,66.172,65.678,66.172,28.604z" fill="#FFFFFF"/>
	<path d="M121.448,323.218c-46.751,0-84.781-48.326-84.781-107.733c0-59.403,38.035-107.734,84.781-107.734h40.638   c-32.918,18.73-55.851,59.964-55.851,107.734c0,47.775,22.932,89.004,55.851,107.733H121.448z" fill="#FFFFFF"/>
	<g>
		<path d="M201.772,107.745c-46.749,0-84.786,48.331-84.786,107.734c0,59.402,38.037,107.733,84.786,107.733    c46.752,0,84.778-48.331,84.778-107.733C286.55,156.076,248.524,107.745,201.772,107.745z M201.772,294.628    c-13.302,0-26.278-6.897-36.53-19.412c-12.5-15.254-19.665-37.029-19.665-59.731c0-22.71,7.165-44.479,19.665-59.731    c10.252-12.521,23.229-19.41,36.53-19.41c30.462,0,56.195,36.248,56.195,79.146C257.967,258.393,232.234,294.628,201.772,294.628z    " fill="#FFFFFF"/>
		<path d="M178.392,242.98c0.408-1.319,0.781-2.646,1.122-3.989c0.221-0.883,0.441-1.766,0.641-2.651    c0.31-1.381,0.572-2.778,0.818-4.188c0.153-0.867,0.314-1.738,0.447-2.62c0.226-1.543,0.394-3.108,0.54-4.678    c0.08-0.766,0.179-1.521,0.23-2.288c0.18-2.342,0.278-4.705,0.278-7.081c0-2.379-0.099-4.736-0.278-7.082    c-0.052-0.767-0.15-1.517-0.23-2.279c-0.146-1.574-0.314-3.138-0.54-4.693c-0.133-0.87-0.289-1.742-0.447-2.603    c-0.246-1.417-0.514-2.819-0.818-4.204c-0.199-0.888-0.42-1.764-0.641-2.631c-0.341-1.36-0.725-2.688-1.122-4.01    c-0.252-0.841-0.504-1.686-0.787-2.511c-0.463-1.354-0.967-2.683-1.493-3.989c-0.288-0.734-0.556-1.47-0.87-2.184    c-0.672-1.553-1.396-3.06-2.152-4.534c-0.216-0.432-0.41-0.872-0.631-1.291c-0.959-1.797-1.994-3.519-3.075-5.188    c-8.357,12.873-13.055,29.67-13.055,47.199c0,17.526,4.698,34.325,13.055,47.196c1.086-1.67,2.121-3.386,3.075-5.181    c0.226-0.421,0.42-0.871,0.636-1.302c0.751-1.475,1.476-2.978,2.147-4.521c0.31-0.725,0.582-1.47,0.87-2.199    c0.526-1.312,1.025-2.629,1.486-3.979C177.877,244.665,178.14,243.824,178.392,242.98z" fill="#FFFFFF"/>
		<path d="M201.772,147.089c-8.907,0-17.807,4.341-25.418,12.31c0.295,0.412,0.552,0.874,0.841,1.294    c0.607,0.884,1.187,1.788,1.758,2.7c0.73,1.155,1.434,2.332,2.116,3.539c0.535,0.956,1.05,1.927,1.554,2.919    c0.641,1.239,1.238,2.509,1.815,3.8c0.462,1.013,0.914,2.026,1.334,3.072c0.546,1.332,1.044,2.688,1.532,4.057    c0.374,1.055,0.751,2.111,1.094,3.181c0.449,1.429,0.839,2.878,1.227,4.342c0.284,1.065,0.589,2.127,0.841,3.218    c0.351,1.543,0.639,3.114,0.935,4.688c0.188,1.045,0.408,2.075,0.566,3.13c0.272,1.763,0.446,3.547,0.631,5.339    c0.094,0.891,0.224,1.769,0.293,2.667c0.2,2.696,0.32,5.417,0.32,8.151c0,2.735-0.109,5.454-0.32,8.152    c-0.072,0.893-0.199,1.773-0.293,2.667c-0.18,1.784-0.358,3.581-0.631,5.344c-0.158,1.045-0.379,2.068-0.566,3.106    c-0.296,1.576-0.579,3.15-0.935,4.703c-0.252,1.083-0.557,2.138-0.841,3.204c-0.388,1.463-0.787,2.917-1.239,4.355    c-0.335,1.077-0.714,2.122-1.091,3.171c-0.488,1.376-0.987,2.74-1.532,4.074c-0.421,1.034-0.872,2.047-1.335,3.065    c-0.576,1.292-1.176,2.562-1.815,3.807c-0.504,0.981-1.013,1.952-1.553,2.908c-0.673,1.213-1.387,2.377-2.116,3.542    c-0.572,0.914-1.15,1.816-1.759,2.698c-0.288,0.426-0.546,0.883-0.841,1.291c7.611,7.97,16.511,12.316,25.418,12.316    c24.635,0,45.444-31.323,45.444-68.395C247.215,178.407,226.407,147.089,201.772,147.089z" fill="#FFFFFF"/>
	</g>
</g>
<g>
</g>
<g>
</g>
<g>
</g>
<g>
</g>
<g>
</g>
<g>
</g>
<g>
</g>
<g>
</g>
<g>
</g>
<g>
</g>
<g>
</g>
<g>
</g>
<g>
</g>
<g>
</g>
<g>
</g>
</svg>
