<?xml version="1.0" encoding="iso-8859-1"?>
<!-- Generator: Adobe Illustrator 18.0.0, SVG Export Plug-In . SVG Version: 6.00 Build 0)  -->
<!DOCTYPE svg PUBLIC "-//W3C//DTD SVG 1.1//EN" "http://www.w3.org/Graphics/SVG/1.1/DTD/svg11.dtd">
<svg xmlns="http://www.w3.org/2000/svg" xmlns:xlink="http://www.w3.org/1999/xlink" version="1.1" id="Capa_1" x="0px" y="0px" viewBox="0 0 489.023 489.023" style="enable-background:new 0 0 489.023 489.023;" xml:space="preserve" width="512px" height="512px">
<path d="M37.108,211.25v81.297c0.005,2.675,1.59,5.145,3.907,6.482l59.053,34.068l-35.585,20.827  c-2.306,1.349-3.72,3.823-3.712,6.495s1.437,5.137,3.75,6.473l4.388,2.533c-0.171,1.631-0.26,3.305-0.26,5.013  c0,18.396,10.256,32.807,23.348,32.807c7.921,0,14.799-5.28,19-13.521l94.577,54.604c1.16,0.67,2.455,1.005,3.75,1.005  c0.047,0,0.093-0.008,0.14-0.009c-0.325,2.216-0.498,4.519-0.498,6.89c0,18.396,10.256,32.807,23.348,32.807  c13.092,0,23.348-14.411,23.348-32.807c0-11.219-3.818-20.947-9.764-26.837l81.187-46.873c-0.242,1.927-0.375,3.914-0.375,5.953  c0,18.396,10.256,32.807,23.348,32.807s23.348-14.411,23.348-32.807c0-11.308-3.879-21.103-9.905-26.978l14.135-8.161  c2.32-1.34,3.75-3.816,3.75-6.495v-80.722l23.135-120.214l21.873-37.863l21.77-12.569c2.32-1.34,3.75-3.815,3.75-6.495  c0-2.679-1.429-5.155-3.749-6.495L307.112,1.005c-2.324-1.341-5.185-1.34-7.506,0.002l-23.509,13.597  c-1.139,0.658-2.084,1.605-2.741,2.744l-22.665,39.279L40.284,205.108c-2.001,1.412-3.167,3.708-3.162,6.142H37.108z   M341.711,388.458c0-10.705,5.025-17.807,8.348-17.807s8.348,7.102,8.348,17.807s-5.025,17.807-8.348,17.807  S341.711,399.162,341.711,388.458z M193.319,360.919l0.015-64.489l98.685-69.649l66.864,38.604L193.319,360.919z M383.492,143.863  l-92.283,65.13l-50.001-28.868l20.527-106.56L383.492,143.863z M130.206,251.863l102.628-59.252l44.877,25.91l-92.286,65.133  L130.206,251.863z M386.514,160.09l-18.001,93.535l-62.995-36.37L386.514,160.09z M178.334,296.879l-0.015,64.045L59.768,292.53  l55.428-32.001L178.334,296.879z M52.239,279.557l-0.106-55.334l48.041,27.659L52.239,279.557z M58.525,210.594L245.477,78.665  l-19.36,100.502l-110.932,64.047L58.525,210.594z M282.599,31.343l128.06,73.935l-16.006,27.707L266.606,59.058L282.599,31.343z   M420.905,93.874L294.842,21.091l8.522-4.929L429.416,88.96L420.905,93.874z M366.387,342.494l-86.509,49.946l-55.554-32.094  l142.062-81.972V342.494z M223.967,456.215c0-10.705,5.024-17.807,8.348-17.807s8.349,7.102,8.349,17.807  s-5.025,17.807-8.349,17.807S223.967,466.92,223.967,456.215z M100.048,370.082l-13.77-7.95c1.717-3.482,3.956-5.5,5.721-5.5  C94.846,356.632,98.933,361.856,100.048,370.082z M83.853,378.053l14.13,8.158c-1.746,3.818-4.13,6.035-5.985,6.035  C89.065,392.246,84.813,386.71,83.853,378.053z M115.024,341.725l67.045,38.679c1.16,0.669,2.454,1.004,3.748,1.004  c1.294,0,2.588-0.335,3.748-1.004l0,0l0.001,0c0,0,0.001,0,0.001-0.001l0.002-0.001l19.755-11.399l55.558,32.096l-55.556,32.075  l-94.181-54.376c0.129-1.425,0.203-2.877,0.203-4.359c0-11.359-3.913-21.192-9.986-27.058L115.024,341.725z" fill="#333333"/>
<g>
</g>
<g>
</g>
<g>
</g>
<g>
</g>
<g>
</g>
<g>
</g>
<g>
</g>
<g>
</g>
<g>
</g>
<g>
</g>
<g>
</g>
<g>
</g>
<g>
</g>
<g>
</g>
<g>
</g>
</svg>
