<?xml version="1.0" encoding="iso-8859-1"?>
<!-- Generator: Adobe Illustrator 19.0.0, SVG Export Plug-In . SVG Version: 6.00 Build 0)  -->
<svg xmlns="http://www.w3.org/2000/svg" xmlns:xlink="http://www.w3.org/1999/xlink" version="1.1" id="Capa_1" x="0px" y="0px" viewBox="0 0 512.223 512.223" style="enable-background:new 0 0 512.223 512.223;" xml:space="preserve" width="512px" height="512px">
<g>
	<g>
		<g>
			<rect x="152.105" y="448.223" width="64" height="21.333" fill="#333333"/>
			<path d="M509.272,173.742c-2.059-46.684-22.061-90.77-55.833-123.066l-0.213-0.32C417.385,15.894,368.91-2.245,319.252,0.223     c-2.453,0-4.8,0-7.147,0.64v-0.64H34.772c-17.673,0-32,14.327-32,32v448c0,17.673,14.327,32,32,32h256c17.673,0,32-14.327,32-32     V362.889h10.667c0.885,0.12,1.782,0.12,2.667,0C436.155,358.476,513.685,273.792,509.272,173.742z M24.105,32.223     c0-5.891,4.776-10.667,10.667-10.667h209.067c-20.26,10.807-38.343,25.273-53.333,42.667h-166.4V32.223z M301.438,480.223     c0,5.891-4.776,10.667-10.667,10.667h-256c-5.891,0-10.667-4.776-10.667-10.667v-53.333h277.333V480.223z M301.438,405.556     H24.105v-320h150.827c-16.257,25.282-25.836,54.275-27.84,84.267c-3.149,48.391,13.217,96.027,45.44,132.267l-42.667,42.667     c-4.124,4.207-4.056,10.96,0.151,15.084c1.983,1.944,4.646,3.038,7.423,3.049h144V405.556z M332.692,341.556h-1.92H183.145l32-32     c4.136-4.16,4.136-10.88,0-15.04c-62.495-62.473-62.513-163.779-0.04-226.274c28.065-28.075,65.565-44.715,105.214-46.686     c88.261-4.3,163.297,63.763,167.597,152.024c0.129,2.657,0.193,5.316,0.19,7.976     C488.651,268.367,419.482,339.578,332.692,341.556z" fill="#333333"/>
			<path d="M45.438,117.556v32h21.333v-21.333h21.333v-21.333h-32C50.214,106.889,45.438,111.665,45.438,117.556z" fill="#333333"/>
			<path d="M66.772,341.556H45.438v32c0,5.891,4.776,10.667,10.667,10.667h32v-21.333H66.772V341.556z" fill="#333333"/>
			<path d="M440.105,117.556h-94.613c4.315-13.135,16.797-21.834,30.613-21.333V74.889c-16.405,0.003-31.99,7.172-42.667,19.627     c-10.677-12.455-26.262-19.624-42.667-19.627v21.333c13.856-0.549,26.395,8.159,30.72,21.333h-94.72     c-5.891,0-10.667,4.776-10.667,10.667v53.333c0,5.891,4.776,10.667,10.667,10.667h21.333v85.333     c0,5.891,4.776,10.667,10.667,10.667h149.333c5.891,0,10.667-4.776,10.667-10.667v-85.333h21.333     c5.891,0,10.667-4.776,10.667-10.667v-53.333C450.772,122.332,445.996,117.556,440.105,117.556z M322.772,266.889h-53.333     v-74.667h53.333V266.889z M322.772,170.889h-85.333v-32h85.333V170.889z M397.438,266.889h-53.333v-74.667h53.333V266.889z      M429.438,170.889h-85.333v-32h85.333V170.889z" fill="#333333"/>
		</g>
	</g>
</g>
<g>
</g>
<g>
</g>
<g>
</g>
<g>
</g>
<g>
</g>
<g>
</g>
<g>
</g>
<g>
</g>
<g>
</g>
<g>
</g>
<g>
</g>
<g>
</g>
<g>
</g>
<g>
</g>
<g>
</g>
</svg>
