<?xml version="1.0" encoding="iso-8859-1"?>
<!-- Generator: Adobe Illustrator 19.0.0, SVG Export Plug-In . SVG Version: 6.00 Build 0)  -->
<svg xmlns="http://www.w3.org/2000/svg" xmlns:xlink="http://www.w3.org/1999/xlink" version="1.1" id="Capa_1" x="0px" y="0px" viewBox="0 0 512 512" style="enable-background:new 0 0 512 512;" xml:space="preserve" width="512px" height="512px">
<g>
	<g>
		<path d="M181.333,0C151.936,0,128,23.936,128,53.333s23.936,53.333,53.333,53.333c29.397,0,53.333-23.936,53.333-53.333    S210.731,0,181.333,0z M181.333,85.333c-17.643,0-32-14.357-32-32c0-17.643,14.357-32,32-32c17.643,0,32,14.357,32,32    C213.333,70.976,198.976,85.333,181.333,85.333z" fill="#FFFFFF"/>
	</g>
</g>
<g>
	<g>
		<path d="M181.333,128c-5.888,0-10.667,4.779-10.667,10.667V160c0,5.888,4.779,10.667,10.667,10.667S192,165.888,192,160v-21.333    C192,132.779,187.221,128,181.333,128z" fill="#FFFFFF"/>
	</g>
</g>
<g>
	<g>
		<path d="M181.333,192c-5.888,0-10.667,4.779-10.667,10.667v42.667c0,5.888,4.779,10.667,10.667,10.667S192,251.221,192,245.333    v-42.667C192,196.779,187.221,192,181.333,192z" fill="#FFFFFF"/>
	</g>
</g>
<g>
	<g>
		<path d="M269.248,244.011l-8.661-69.291C257.28,148.075,234.517,128,207.68,128h-52.672c-26.837,0-49.6,20.075-52.928,46.72    l-8.661,69.291c-0.725,5.845,3.413,11.179,9.259,11.904c5.931,0.683,11.157-3.413,11.904-9.259l8.661-69.291    c2.005-15.979,15.659-28.032,31.765-28.032h52.651c16.107,0,29.76,12.053,31.765,28.032l8.661,69.291    c0.683,5.397,5.269,9.344,10.581,9.344c0.427,0,0.875-0.021,1.323-0.085C265.835,255.189,269.973,249.856,269.248,244.011z" fill="#FFFFFF"/>
	</g>
</g>
<g>
	<g>
		<path d="M469.333,234.667H42.667C19.136,234.667,0,253.803,0,277.333C0,300.864,19.136,320,42.667,320h426.667    C492.864,320,512,300.864,512,277.333C512,253.803,492.864,234.667,469.333,234.667z M469.333,298.667H42.667    c-11.755,0-21.333-9.579-21.333-21.333c0-11.755,9.579-21.333,21.333-21.333h426.667c11.755,0,21.333,9.579,21.333,21.333    C490.667,289.088,481.088,298.667,469.333,298.667z" fill="#FFFFFF"/>
	</g>
</g>
<g>
	<g>
		<path d="M459.84,298.731c-5.739-0.619-11.115,3.584-11.776,9.429l-20.288,182.507H84.224L63.936,308.16    c-0.64-5.867-5.803-10.069-11.776-9.429c-5.867,0.661-10.069,5.931-9.429,11.776l21.333,192c0.597,5.419,5.163,9.493,10.603,9.493    h362.667c5.44,0,10.005-4.075,10.603-9.493l21.333-192C469.909,304.661,465.685,299.392,459.84,298.731z" fill="#FFFFFF"/>
	</g>
</g>
<g>
	<g>
		<path d="M373.333,192C343.936,192,320,215.936,320,245.333c0,5.888,4.779,10.667,10.667,10.667s10.667-4.779,10.667-10.667    c0-17.643,14.357-32,32-32c17.643,0,32,14.357,32,32c0,5.888,4.779,10.667,10.667,10.667c5.888,0,10.667-4.779,10.667-10.667    C426.667,215.936,402.731,192,373.333,192z" fill="#FFFFFF"/>
	</g>
</g>
<g>
	<g>
		<path d="M373.333,170.667c-5.888,0-10.667,4.779-10.667,10.667v21.333c0,5.888,4.779,10.667,10.667,10.667    c5.888,0,10.667-4.779,10.667-10.667v-21.333C384,175.445,379.221,170.667,373.333,170.667z" fill="#FFFFFF"/>
	</g>
</g>
<g>
</g>
<g>
</g>
<g>
</g>
<g>
</g>
<g>
</g>
<g>
</g>
<g>
</g>
<g>
</g>
<g>
</g>
<g>
</g>
<g>
</g>
<g>
</g>
<g>
</g>
<g>
</g>
<g>
</g>
</svg>
