<?xml version="1.0" encoding="iso-8859-1"?>
<!-- Generator: Adobe Illustrator 19.0.0, SVG Export Plug-In . SVG Version: 6.00 Build 0)  -->
<svg xmlns="http://www.w3.org/2000/svg" xmlns:xlink="http://www.w3.org/1999/xlink" version="1.1" id="Capa_1" x="0px" y="0px" viewBox="0 0 511.999 511.999" style="enable-background:new 0 0 511.999 511.999;" xml:space="preserve" width="512px" height="512px">
<g>
	<g>
		<path d="M504.479,0h-144.73c-4.153,0-7.52,3.367-7.52,7.52s3.367,7.52,7.52,7.52h137.212v61.863h-28.817V55.647    c0-4.153-3.367-7.52-7.52-7.52c-4.153,0-7.52,3.367-7.52,7.52v21.255h-32.352V55.647c0-4.153-3.367-7.52-7.52-7.52    s-7.52,3.367-7.52,7.52v21.255h-32.352V55.647c0-4.153-3.367-7.52-7.52-7.52s-7.52,3.367-7.52,7.52v21.255h-32.352V55.647    c0-4.153-3.367-7.52-7.52-7.52s-7.52,3.367-7.52,7.52v21.255h-32.352V55.647c0-4.153-3.367-7.52-7.52-7.52s-7.52,3.367-7.52,7.52    v21.255h-32.352V55.647c0-4.153-3.367-7.52-7.52-7.52s-7.52,3.367-7.52,7.52v21.255h-32.352V55.647c0-4.153-3.367-7.52-7.52-7.52    s-7.52,3.367-7.52,7.52v21.255h-32.352V55.647c0-4.153-3.367-7.52-7.52-7.52c-4.153,0-7.52,3.367-7.52,7.52v21.255H91.942V15.039    H329.67c4.153,0,7.52-3.367,7.52-7.52S333.822,0,329.67,0H7.52C3.367,0,0,3.367,0,7.52v76.903v87.422    c0,4.153,3.367,7.52,7.52,7.52s7.52-3.367,7.52-7.52V91.942h61.863v29.422H55.647c-4.153,0-7.52,3.367-7.52,7.52    s3.367,7.52,7.52,7.52h21.255v32.352H55.647c-4.153,0-7.52,3.367-7.52,7.52c0,4.153,3.367,7.52,7.52,7.52h21.255v32.352H55.647    c-4.153,0-7.52,3.367-7.52,7.52s3.367,7.52,7.52,7.52h21.255v32.352H55.647c-4.153,0-7.52,3.367-7.52,7.52s3.367,7.52,7.52,7.52    h21.255v32.352H55.647c-4.153,0-7.52,3.367-7.52,7.52s3.367,7.52,7.52,7.52h21.255v32.352H55.647c-4.153,0-7.52,3.367-7.52,7.52    s3.367,7.52,7.52,7.52h21.255v32.352H55.647c-4.153,0-7.52,3.367-7.52,7.52c0,4.153,3.367,7.52,7.52,7.52h21.255v32.352H55.647    c-4.153,0-7.52,3.367-7.52,7.52s3.367,7.52,7.52,7.52h21.255v28.817H15.039V201.922c0-4.153-3.367-7.52-7.52-7.52    S0,197.769,0,201.922v302.558c0,4.153,3.367,7.52,7.52,7.52h76.903c4.153,0,7.52-3.367,7.52-7.52v-36.337H376.12    c0.031,0,0.061-0.004,0.091-0.005c0.216-0.003,0.43-0.011,0.644-0.032c0.115-0.011,0.23-0.034,0.344-0.05    c0.127-0.018,0.257-0.032,0.383-0.057c0.118-0.023,0.235-0.058,0.352-0.087c0.12-0.03,0.242-0.055,0.36-0.09    c0.108-0.033,0.213-0.075,0.32-0.113c0.124-0.044,0.251-0.083,0.373-0.133c0.091-0.038,0.179-0.084,0.27-0.126    c0.132-0.061,0.267-0.118,0.397-0.188c0.081-0.043,0.157-0.094,0.237-0.14c0.133-0.077,0.268-0.151,0.397-0.238    c0.088-0.059,0.17-0.126,0.257-0.19c0.113-0.083,0.23-0.161,0.339-0.251c0.193-0.157,0.378-0.325,0.555-0.502l84.503-84.5    c0.246-0.246,0.465-0.51,0.672-0.784c0.038-0.051,0.076-0.102,0.113-0.153c0.391-0.545,0.706-1.137,0.937-1.763    c0.025-0.066,0.049-0.133,0.072-0.201c0.21-0.616,0.339-1.258,0.383-1.916c0.006-0.083,0.009-0.166,0.012-0.25    c0.003-0.084,0.012-0.167,0.012-0.252v-69.317c0-4.153-3.367-7.52-7.52-7.52s-7.52,3.367-7.52,7.52v61.793h-76.984    c-4.153,0-7.52,3.367-7.52,7.52v76.984H91.942V91.942H310.93v7.52c0,4.153,3.367,7.52,7.52,7.52s7.52-3.367,7.52-7.52v-7.52    h127.134v184.787c0,4.153,3.367,7.52,7.52,7.52c4.153,0,7.52-3.367,7.52-7.52V91.942h36.337c4.153,0,7.52-3.367,7.52-7.52V7.52    C511.999,3.367,508.633,0,504.479,0z M76.903,76.903H15.039V15.039h61.863V76.903z M383.639,383.639h58.83l-58.83,58.83V383.639z" fill="#FFFFFF"/>
	</g>
</g>
<g>
	<g>
		<path d="M318.449,292.465c-4.153,0-7.52,3.367-7.52,7.52v15.039c0,4.153,3.367,7.52,7.52,7.52s7.52-3.367,7.52-7.52v-15.039    C325.969,295.831,322.602,292.465,318.449,292.465z" fill="#FFFFFF"/>
	</g>
</g>
<g>
	<g>
		<path d="M318.449,249.352c-4.153,0-7.52,3.367-7.52,7.52v15.039c0,4.153,3.367,7.52,7.52,7.52s7.52-3.367,7.52-7.52v-15.039    C325.969,252.719,322.602,249.352,318.449,249.352z" fill="#FFFFFF"/>
	</g>
</g>
<g>
	<g>
		<path d="M250.69,310.93H235.65c-4.153,0-7.52,3.367-7.52,7.52s3.367,7.52,7.52,7.52h15.039c4.153,0,7.52-3.367,7.52-7.52    S254.842,310.93,250.69,310.93z" fill="#FFFFFF"/>
	</g>
</g>
<g>
	<g>
		<path d="M121.352,310.93h-15.039c-4.153,0-7.52,3.367-7.52,7.52s3.367,7.52,7.52,7.52h15.039c4.153,0,7.52-3.367,7.52-7.52    S125.505,310.93,121.352,310.93z" fill="#FFFFFF"/>
	</g>
</g>
<g>
	<g>
		<path d="M164.465,310.93h-15.039c-4.153,0-7.52,3.367-7.52,7.52s3.367,7.52,7.52,7.52h15.039c4.153,0,7.52-3.367,7.52-7.52    S168.618,310.93,164.465,310.93z" fill="#FFFFFF"/>
	</g>
</g>
<g>
	<g>
		<path d="M207.577,310.93h-15.039c-4.153,0-7.52,3.367-7.52,7.52s3.367,7.52,7.52,7.52h15.039c4.153,0,7.52-3.367,7.52-7.52    S211.73,310.93,207.577,310.93z" fill="#FFFFFF"/>
	</g>
</g>
<g>
	<g>
		<path d="M293.802,310.93h-15.039c-4.153,0-7.52,3.367-7.52,7.52s3.367,7.52,7.52,7.52h15.039c4.153,0,7.52-3.367,7.52-7.52    S297.955,310.93,293.802,310.93z" fill="#FFFFFF"/>
	</g>
</g>
<g>
	<g>
		<path d="M318.449,206.24c-4.153,0-7.52,3.367-7.52,7.52v15.039c0,4.153,3.367,7.52,7.52,7.52s7.52-3.367,7.52-7.52v-15.039    C325.969,209.607,322.602,206.24,318.449,206.24z" fill="#FFFFFF"/>
	</g>
</g>
<g>
	<g>
		<path d="M318.449,120.015c-4.153,0-7.52,3.367-7.52,7.52v15.039c0,4.153,3.367,7.52,7.52,7.52s7.52-3.367,7.52-7.52v-15.039    C325.969,123.382,322.602,120.015,318.449,120.015z" fill="#FFFFFF"/>
	</g>
</g>
<g>
	<g>
		<path d="M318.449,163.127c-4.153,0-7.52,3.367-7.52,7.52v15.039c0,4.153,3.367,7.52,7.52,7.52s7.52-3.367,7.52-7.52v-15.039    C325.969,166.494,322.602,163.127,318.449,163.127z" fill="#FFFFFF"/>
	</g>
</g>
<g>
</g>
<g>
</g>
<g>
</g>
<g>
</g>
<g>
</g>
<g>
</g>
<g>
</g>
<g>
</g>
<g>
</g>
<g>
</g>
<g>
</g>
<g>
</g>
<g>
</g>
<g>
</g>
<g>
</g>
</svg>
